# xmcd CD database file
#
# Track frame offsets:
#	150
#	17460
#	29289
#	47245
#	75875
#	92764
#	109958
#	115455
#	122191
#	136270
#	145843
#	152951
#	158726
#	177348
#	197442
#	209746
#
# Disc length: 3038 seconds
#
# Revision: 1
# Processed by: cddbd v1.5.1PL0 Copyright (c) Steve Scherf et al.
# Submitted via: CDex 1.51
#
DISCID=d80bdc10
DTITLE=Godard - Le Regard d'un Ange
DYEAR=2003
DGENRE=Jazz
TTITLE0=Passagère
TTITLE1=Le Regard d'un Ange
TTITLE2=Angels eyes I
TTITLE3=Penthés(il)ée IV
TTITLE4=Regard d'oiseau
TTITLE5=Mémoire m'émoi
TTITLE6=Caiman
TTITLE7=Battements d'aile
TTITLE8=Cric-Crac
TTITLE9=Reflet d'oiseau
TTITLE10=Plume
TTITLE11=Soloiseau
TTITLE12=Combattimenti
TTITLE13=Soli-tu
TTITLE14=Reflet d'en haut
TTITLE15=Angel eyes II
EXTD=YEAR: 2003
EXTT0=
EXTT1=
EXTT2=
EXTT3=
EXTT4=
EXTT5=
EXTT6=
EXTT7=
EXTT8=
EXTT9=
EXTT10=
EXTT11=
EXTT12=
EXTT13=
EXTT14=
EXTT15=
PLAYORDER=
